<?xml version="1.0" encoding="UTF-8"?>
<svg xmlns="http://www.w3.org/2000/svg" xmlns:xlink="http://www.w3.org/1999/xlink" width="157pt" height="18pt" viewBox="0 0 157 18" version="1.1">
<defs>
<clipPath id="clip1">
  <path d="M 43.304688 15.132812 L 48 15.132812 L 48 17.871094 L 43.304688 17.871094 Z M 43.304688 15.132812 "/>
</clipPath>
<clipPath id="clip2">
  <path d="M 100 15.132812 L 104.113281 15.132812 L 104.113281 17.871094 L 100 17.871094 Z M 100 15.132812 "/>
</clipPath>
</defs>
<g id="surface1">
<path style=" stroke:none;fill-rule:nonzero;fill:rgb(0%,62.352941%,89.019608%);fill-opacity:1;" d="M 94.625 11.320312 L 94.625 8.6875 C 94.625 8.496094 95.136719 8.402344 95.433594 8.535156 L 98.375 9.851562 C 98.558594 9.9375 98.558594 10.070312 98.375 10.152344 L 95.433594 11.472656 C 95.136719 11.605469 94.625 11.511719 94.625 11.320312 "/>
<path style=" stroke:none;fill-rule:nonzero;fill:rgb(0%,30.980392%,53.72549%);fill-opacity:1;" d="M 22.972656 15.148438 C 24.246094 15.148438 25.042969 15.59375 25.042969 16.09375 C 25.042969 16.199219 24.875 16.261719 24.574219 16.261719 L 21.679688 16.261719 C 21.742188 16.585938 22.269531 16.855469 23.125 16.855469 C 23.484375 16.855469 23.863281 16.800781 24.179688 16.699219 C 24.222656 16.683594 24.28125 16.679688 24.355469 16.679688 C 24.53125 16.679688 24.671875 16.742188 24.671875 16.820312 C 24.671875 16.875 24.617188 16.914062 24.53125 16.941406 C 24.105469 17.078125 23.605469 17.144531 23.042969 17.144531 C 21.777344 17.144531 20.847656 16.742188 20.847656 16.144531 C 20.847656 15.59375 21.734375 15.148438 22.972656 15.148438 M 21.671875 16.007812 L 24.265625 16.007812 C 24.246094 15.753906 23.867188 15.4375 22.972656 15.4375 C 22.121094 15.4375 21.714844 15.746094 21.671875 16.007812 "/>
<path style=" stroke:none;fill-rule:nonzero;fill:rgb(0%,30.980392%,53.72549%);fill-opacity:1;" d="M 31.117188 15.351562 C 31.117188 15.375 31.101562 15.398438 31.085938 15.421875 L 29.683594 16.949219 C 29.589844 17.050781 29.367188 17.117188 29.125 17.117188 C 28.855469 17.117188 28.636719 17.050781 28.550781 16.949219 L 27.144531 15.417969 C 27.125 15.398438 27.117188 15.375 27.117188 15.351562 C 27.117188 15.253906 27.285156 15.175781 27.503906 15.175781 C 27.664062 15.175781 27.820312 15.222656 27.875 15.285156 L 29.113281 16.695312 L 30.355469 15.285156 C 30.40625 15.222656 30.554688 15.175781 30.722656 15.175781 C 30.945312 15.175781 31.117188 15.253906 31.117188 15.351562 "/>
<path style=" stroke:none;fill-rule:nonzero;fill:rgb(0%,30.980392%,53.72549%);fill-opacity:1;" d="M 35.332031 15.148438 C 36.609375 15.148438 37.402344 15.59375 37.402344 16.09375 C 37.402344 16.199219 37.230469 16.261719 36.933594 16.261719 L 34.039062 16.261719 C 34.101562 16.585938 34.628906 16.855469 35.484375 16.855469 C 35.84375 16.855469 36.222656 16.800781 36.539062 16.699219 C 36.582031 16.683594 36.640625 16.679688 36.714844 16.679688 C 36.890625 16.679688 37.03125 16.742188 37.03125 16.820312 C 37.03125 16.875 36.976562 16.914062 36.890625 16.941406 C 36.46875 17.078125 35.964844 17.144531 35.402344 17.144531 C 34.136719 17.144531 33.203125 16.742188 33.203125 16.144531 C 33.203125 15.59375 34.09375 15.148438 35.332031 15.148438 M 34.03125 16.007812 L 36.628906 16.007812 C 36.609375 15.753906 36.226562 15.4375 35.332031 15.4375 C 34.480469 15.4375 34.074219 15.746094 34.03125 16.007812 "/>
<path style=" stroke:none;fill-rule:nonzero;fill:rgb(0%,30.980392%,53.72549%);fill-opacity:1;" d="M 42.160156 15.332031 C 42.160156 15.414062 42.019531 15.488281 41.746094 15.503906 C 41.398438 15.519531 40.902344 15.632812 40.714844 15.773438 L 40.714844 16.941406 C 40.714844 17.039062 40.53125 17.117188 40.320312 17.117188 C 40.101562 17.117188 39.925781 17.039062 39.925781 16.941406 L 39.925781 15.351562 C 39.925781 15.253906 40.101562 15.175781 40.3125 15.175781 C 40.53125 15.175781 40.714844 15.253906 40.714844 15.351562 L 40.714844 15.488281 C 40.953125 15.34375 41.289062 15.226562 41.597656 15.183594 C 41.695312 15.171875 41.757812 15.164062 41.824219 15.164062 C 42.054688 15.164062 42.160156 15.242188 42.160156 15.332031 "/>
<g clip-path="url(#clip1)" clip-rule="nonzero">
<path style=" stroke:none;fill-rule:nonzero;fill:rgb(0%,30.980392%,53.72549%);fill-opacity:1;" d="M 44.597656 17.550781 C 44.625 17.550781 44.648438 17.554688 44.691406 17.554688 C 44.984375 17.554688 45.175781 17.511719 45.308594 17.371094 L 45.558594 17.117188 L 44 15.417969 C 43.980469 15.394531 43.980469 15.375 43.980469 15.351562 C 43.980469 15.253906 44.144531 15.175781 44.371094 15.175781 C 44.527344 15.175781 44.6875 15.222656 44.738281 15.285156 L 45.976562 16.6875 L 47.214844 15.285156 C 47.269531 15.222656 47.417969 15.175781 47.585938 15.175781 C 47.804688 15.175781 47.984375 15.253906 47.984375 15.351562 C 47.984375 15.375 47.964844 15.398438 47.945312 15.421875 L 46.066406 17.460938 C 45.800781 17.761719 45.328125 17.867188 44.710938 17.871094 C 44.667969 17.871094 44.613281 17.871094 44.554688 17.867188 C 44.371094 17.859375 44.230469 17.792969 44.230469 17.707031 C 44.230469 17.617188 44.402344 17.550781 44.597656 17.550781 "/>
</g>
<path style=" stroke:none;fill-rule:nonzero;fill:rgb(0%,30.980392%,53.72549%);fill-opacity:1;" d="M 50.066406 16.144531 C 50.066406 15.597656 50.894531 15.148438 52.214844 15.148438 C 53.542969 15.148438 54.359375 15.597656 54.359375 16.144531 C 54.359375 16.695312 53.542969 17.144531 52.214844 17.144531 C 50.894531 17.144531 50.066406 16.695312 50.066406 16.144531 M 53.53125 16.144531 C 53.53125 15.785156 53.066406 15.464844 52.214844 15.464844 C 51.371094 15.464844 50.894531 15.785156 50.894531 16.144531 C 50.894531 16.507812 51.371094 16.832031 52.214844 16.832031 C 53.066406 16.832031 53.53125 16.507812 53.53125 16.144531 "/>
<path style=" stroke:none;fill-rule:nonzero;fill:rgb(0%,30.980392%,53.72549%);fill-opacity:1;" d="M 60.554688 15.761719 L 60.554688 16.941406 C 60.554688 17.039062 60.371094 17.117188 60.148438 17.117188 C 59.9375 17.117188 59.761719 17.039062 59.761719 16.941406 L 59.761719 15.882812 C 59.761719 15.566406 59.402344 15.464844 58.855469 15.464844 C 58.363281 15.464844 57.917969 15.597656 57.6875 15.738281 L 57.6875 16.941406 C 57.6875 17.039062 57.503906 17.117188 57.289062 17.117188 C 57.070312 17.117188 56.894531 17.039062 56.894531 16.941406 L 56.894531 15.351562 C 56.894531 15.253906 57.070312 15.175781 57.28125 15.175781 C 57.503906 15.175781 57.6875 15.253906 57.6875 15.351562 L 57.6875 15.457031 C 57.976562 15.308594 58.539062 15.148438 59.191406 15.148438 C 60.085938 15.148438 60.554688 15.359375 60.554688 15.761719 "/>
<path style=" stroke:none;fill-rule:nonzero;fill:rgb(0%,30.980392%,53.72549%);fill-opacity:1;" d="M 65.207031 15.148438 C 66.480469 15.148438 67.273438 15.59375 67.273438 16.09375 C 67.273438 16.199219 67.109375 16.261719 66.808594 16.261719 L 63.914062 16.261719 C 63.976562 16.585938 64.503906 16.855469 65.355469 16.855469 C 65.71875 16.855469 66.097656 16.800781 66.414062 16.699219 C 66.457031 16.683594 66.519531 16.679688 66.589844 16.679688 C 66.761719 16.679688 66.902344 16.742188 66.902344 16.820312 C 66.902344 16.875 66.851562 16.914062 66.761719 16.941406 C 66.339844 17.078125 65.839844 17.144531 65.277344 17.144531 C 64.007812 17.144531 63.078125 16.742188 63.078125 16.144531 C 63.078125 15.59375 63.964844 15.148438 65.207031 15.148438 M 63.90625 16.007812 L 66.5 16.007812 C 66.480469 15.753906 66.105469 15.4375 65.207031 15.4375 C 64.355469 15.4375 63.949219 15.746094 63.90625 16.007812 "/>
<path style=" stroke:none;fill-rule:nonzero;fill:rgb(0%,30.980392%,53.72549%);fill-opacity:1;" d="M 70.152344 16.648438 C 70.453125 16.648438 70.707031 16.757812 70.707031 16.894531 C 70.707031 17.027344 70.453125 17.140625 70.152344 17.140625 C 69.855469 17.140625 69.605469 17.027344 69.605469 16.894531 C 69.605469 16.757812 69.855469 16.648438 70.152344 16.648438 "/>
<path style=" stroke:none;fill-rule:nonzero;fill:rgb(0%,30.980392%,53.72549%);fill-opacity:1;" d="M 79.035156 15.148438 C 80.308594 15.148438 81.105469 15.59375 81.105469 16.09375 C 81.105469 16.199219 80.9375 16.261719 80.636719 16.261719 L 77.742188 16.261719 C 77.804688 16.585938 78.332031 16.855469 79.1875 16.855469 C 79.546875 16.855469 79.925781 16.800781 80.242188 16.699219 C 80.285156 16.683594 80.34375 16.679688 80.417969 16.679688 C 80.59375 16.679688 80.734375 16.742188 80.734375 16.820312 C 80.734375 16.875 80.679688 16.914062 80.59375 16.941406 C 80.167969 17.078125 79.667969 17.144531 79.109375 17.144531 C 77.839844 17.144531 76.910156 16.742188 76.910156 16.144531 C 76.910156 15.59375 77.796875 15.148438 79.035156 15.148438 M 77.734375 16.007812 L 80.332031 16.007812 C 80.308594 15.753906 79.933594 15.4375 79.035156 15.4375 C 78.183594 15.4375 77.78125 15.746094 77.734375 16.007812 "/>
<path style=" stroke:none;fill-rule:nonzero;fill:rgb(0%,30.980392%,53.72549%);fill-opacity:1;" d="M 87.179688 15.351562 C 87.179688 15.375 87.164062 15.398438 87.148438 15.421875 L 85.746094 16.949219 C 85.652344 17.050781 85.429688 17.117188 85.1875 17.117188 C 84.921875 17.117188 84.699219 17.050781 84.613281 16.949219 L 83.207031 15.417969 C 83.1875 15.398438 83.179688 15.375 83.179688 15.351562 C 83.179688 15.253906 83.347656 15.175781 83.566406 15.175781 C 83.726562 15.175781 83.882812 15.222656 83.9375 15.285156 L 85.175781 16.695312 L 86.417969 15.285156 C 86.46875 15.222656 86.617188 15.175781 86.785156 15.175781 C 87.007812 15.175781 87.179688 15.253906 87.179688 15.351562 "/>
<path style=" stroke:none;fill-rule:nonzero;fill:rgb(0%,30.980392%,53.72549%);fill-opacity:1;" d="M 91.394531 15.148438 C 92.667969 15.148438 93.460938 15.59375 93.460938 16.09375 C 93.460938 16.199219 93.296875 16.261719 92.996094 16.261719 L 90.101562 16.261719 C 90.164062 16.585938 90.691406 16.855469 91.546875 16.855469 C 91.90625 16.855469 92.285156 16.800781 92.601562 16.699219 C 92.644531 16.683594 92.703125 16.679688 92.777344 16.679688 C 92.953125 16.679688 93.09375 16.742188 93.09375 16.820312 C 93.09375 16.875 93.039062 16.914062 92.953125 16.941406 C 92.527344 17.078125 92.027344 17.144531 91.464844 17.144531 C 90.199219 17.144531 89.269531 16.742188 89.269531 16.144531 C 89.269531 15.59375 90.152344 15.148438 91.394531 15.148438 M 90.09375 16.007812 L 92.6875 16.007812 C 92.667969 15.753906 92.289062 15.4375 91.394531 15.4375 C 90.542969 15.4375 90.136719 15.746094 90.09375 16.007812 "/>
<path style=" stroke:none;fill-rule:nonzero;fill:rgb(0%,30.980392%,53.72549%);fill-opacity:1;" d="M 98.222656 15.332031 C 98.222656 15.414062 98.082031 15.488281 97.808594 15.503906 C 97.457031 15.519531 96.964844 15.632812 96.777344 15.773438 L 96.777344 16.941406 C 96.777344 17.039062 96.59375 17.117188 96.382812 17.117188 C 96.164062 17.117188 95.988281 17.039062 95.988281 16.941406 L 95.988281 15.351562 C 95.988281 15.253906 96.164062 15.175781 96.375 15.175781 C 96.59375 15.175781 96.777344 15.253906 96.777344 15.351562 L 96.777344 15.488281 C 97.015625 15.34375 97.351562 15.226562 97.65625 15.183594 C 97.753906 15.171875 97.820312 15.164062 97.886719 15.164062 C 98.117188 15.164062 98.222656 15.242188 98.222656 15.332031 "/>
<g clip-path="url(#clip2)" clip-rule="nonzero">
<path style=" stroke:none;fill-rule:nonzero;fill:rgb(0%,30.980392%,53.72549%);fill-opacity:1;" d="M 100.660156 17.550781 C 100.6875 17.550781 100.710938 17.554688 100.757812 17.554688 C 101.046875 17.554688 101.238281 17.511719 101.371094 17.371094 L 101.617188 17.117188 L 100.0625 15.417969 C 100.042969 15.394531 100.042969 15.375 100.042969 15.351562 C 100.042969 15.253906 100.207031 15.175781 100.429688 15.175781 C 100.589844 15.175781 100.746094 15.222656 100.800781 15.285156 L 102.039062 16.6875 L 103.277344 15.285156 C 103.332031 15.222656 103.480469 15.175781 103.648438 15.175781 C 103.867188 15.175781 104.046875 15.253906 104.046875 15.351562 C 104.046875 15.375 104.027344 15.398438 104.007812 15.421875 L 102.128906 17.460938 C 101.863281 17.761719 101.390625 17.867188 100.773438 17.871094 C 100.730469 17.871094 100.675781 17.871094 100.617188 17.867188 C 100.429688 17.859375 100.289062 17.792969 100.289062 17.707031 C 100.292969 17.617188 100.464844 17.550781 100.660156 17.550781 "/>
</g>
<path style=" stroke:none;fill-rule:nonzero;fill:rgb(0%,30.980392%,53.72549%);fill-opacity:1;" d="M 109.972656 16.949219 L 109.035156 15.636719 L 108.089844 16.949219 C 108.023438 17.050781 107.820312 17.117188 107.578125 17.117188 C 107.347656 17.117188 107.132812 17.050781 107.074219 16.949219 L 105.980469 15.402344 C 105.972656 15.386719 105.964844 15.367188 105.964844 15.347656 C 105.964844 15.253906 106.140625 15.175781 106.347656 15.175781 C 106.535156 15.175781 106.683594 15.226562 106.730469 15.300781 L 107.625 16.644531 L 108.601562 15.316406 C 108.652344 15.230469 108.828125 15.175781 109.03125 15.175781 C 109.234375 15.175781 109.410156 15.230469 109.460938 15.316406 L 110.4375 16.644531 L 111.335938 15.300781 C 111.378906 15.226562 111.53125 15.175781 111.714844 15.175781 C 111.921875 15.175781 112.101562 15.253906 112.101562 15.351562 C 112.101562 15.367188 112.09375 15.390625 112.082031 15.40625 L 110.992188 16.949219 C 110.929688 17.050781 110.722656 17.117188 110.484375 17.117188 C 110.246094 17.117188 110.046875 17.050781 109.972656 16.949219 "/>
<path style=" stroke:none;fill-rule:nonzero;fill:rgb(0%,30.980392%,53.72549%);fill-opacity:1;" d="M 117.335938 16.941406 L 117.335938 15.871094 C 117.335938 15.558594 116.976562 15.460938 116.429688 15.460938 C 115.941406 15.460938 115.492188 15.597656 115.261719 15.738281 L 115.261719 16.941406 C 115.261719 17.039062 115.078125 17.117188 114.863281 17.117188 C 114.644531 17.117188 114.46875 17.039062 114.46875 16.941406 L 114.46875 14.628906 C 114.46875 14.527344 114.644531 14.449219 114.863281 14.449219 C 115.078125 14.449219 115.261719 14.527344 115.261719 14.628906 L 115.261719 15.464844 C 115.542969 15.308594 116.117188 15.148438 116.765625 15.148438 C 117.671875 15.148438 118.128906 15.351562 118.128906 15.753906 L 118.128906 16.941406 C 118.128906 17.039062 117.953125 17.117188 117.734375 17.117188 C 117.519531 17.117188 117.335938 17.039062 117.335938 16.941406 "/>
<path style=" stroke:none;fill-rule:nonzero;fill:rgb(0%,30.980392%,53.72549%);fill-opacity:1;" d="M 122.789062 15.148438 C 124.066406 15.148438 124.859375 15.59375 124.859375 16.09375 C 124.859375 16.199219 124.691406 16.261719 124.390625 16.261719 L 121.496094 16.261719 C 121.558594 16.585938 122.085938 16.855469 122.941406 16.855469 C 123.300781 16.855469 123.679688 16.800781 123.996094 16.699219 C 124.039062 16.683594 124.097656 16.679688 124.171875 16.679688 C 124.347656 16.679688 124.488281 16.742188 124.488281 16.820312 C 124.488281 16.875 124.433594 16.914062 124.347656 16.941406 C 123.921875 17.078125 123.421875 17.144531 122.863281 17.144531 C 121.59375 17.144531 120.664062 16.742188 120.664062 16.144531 C 120.664062 15.59375 121.550781 15.148438 122.789062 15.148438 M 121.488281 16.007812 L 124.085938 16.007812 C 124.066406 15.753906 123.6875 15.4375 122.789062 15.4375 C 121.9375 15.4375 121.535156 15.746094 121.488281 16.007812 "/>
<path style=" stroke:none;fill-rule:nonzero;fill:rgb(0%,30.980392%,53.72549%);fill-opacity:1;" d="M 129.617188 15.332031 C 129.617188 15.414062 129.476562 15.488281 129.203125 15.503906 C 128.855469 15.519531 128.359375 15.632812 128.171875 15.773438 L 128.171875 16.941406 C 128.171875 17.039062 127.988281 17.117188 127.777344 17.117188 C 127.558594 17.117188 127.386719 17.039062 127.386719 16.941406 L 127.386719 15.351562 C 127.386719 15.253906 127.558594 15.175781 127.769531 15.175781 C 127.988281 15.175781 128.171875 15.253906 128.171875 15.351562 L 128.171875 15.488281 C 128.410156 15.34375 128.746094 15.226562 129.054688 15.183594 C 129.152344 15.171875 129.214844 15.164062 129.28125 15.164062 C 129.511719 15.164062 129.617188 15.242188 129.617188 15.332031 "/>
<path style=" stroke:none;fill-rule:nonzero;fill:rgb(0%,30.980392%,53.72549%);fill-opacity:1;" d="M 133.753906 15.148438 C 135.027344 15.148438 135.816406 15.59375 135.816406 16.09375 C 135.816406 16.199219 135.652344 16.261719 135.355469 16.261719 L 132.460938 16.261719 C 132.519531 16.585938 133.050781 16.855469 133.898438 16.855469 C 134.261719 16.855469 134.640625 16.800781 134.957031 16.699219 C 135 16.683594 135.0625 16.679688 135.132812 16.679688 C 135.308594 16.679688 135.449219 16.742188 135.449219 16.820312 C 135.449219 16.875 135.398438 16.914062 135.308594 16.941406 C 134.886719 17.078125 134.386719 17.144531 133.820312 17.144531 C 132.554688 17.144531 131.621094 16.742188 131.621094 16.144531 C 131.625 15.59375 132.511719 15.148438 133.753906 15.148438 M 132.449219 16.007812 L 135.042969 16.007812 C 135.027344 15.753906 134.648438 15.4375 133.753906 15.4375 C 132.898438 15.4375 132.492188 15.746094 132.449219 16.007812 "/>
<path style=" stroke:none;fill-rule:nonzero;fill:rgb(0%,30.980392%,53.72549%);fill-opacity:1;" d="M 138.699219 16.648438 C 138.996094 16.648438 139.246094 16.757812 139.246094 16.894531 C 139.246094 17.027344 138.996094 17.140625 138.699219 17.140625 C 138.398438 17.140625 138.148438 17.027344 138.148438 16.894531 C 138.148438 16.757812 138.398438 16.648438 138.699219 16.648438 "/>
<path style=" stroke:none;fill-rule:nonzero;fill:rgb(0%,30.980392%,53.72549%);fill-opacity:1;" d="M 37.550781 11.488281 C 36.273438 11.488281 35.074219 11.398438 33.96875 11.226562 C 32.851562 11.050781 31.867188 10.789062 31.035156 10.445312 C 30.195312 10.101562 29.527344 9.671875 29.046875 9.175781 C 28.566406 8.679688 28.320312 8.101562 28.320312 7.457031 C 28.320312 6.84375 28.558594 6.277344 29.03125 5.773438 C 29.496094 5.265625 30.15625 4.824219 30.996094 4.460938 C 31.832031 4.097656 32.828125 3.808594 33.957031 3.609375 C 35.085938 3.410156 36.339844 3.308594 37.683594 3.308594 C 38.867188 3.308594 39.929688 3.378906 40.84375 3.519531 C 41.761719 3.65625 42.546875 3.84375 43.179688 4.078125 C 43.820312 4.3125 44.316406 4.59375 44.644531 4.90625 C 44.96875 5.222656 45.136719 5.558594 45.136719 5.914062 C 45.136719 6.28125 44.980469 6.617188 44.679688 6.917969 C 44.367188 7.222656 43.816406 7.484375 43.039062 7.703125 C 42.277344 7.914062 41.25 8.082031 39.976562 8.195312 C 38.71875 8.3125 37.105469 8.371094 35.171875 8.371094 C 34.726562 8.371094 34.304688 8.367188 33.914062 8.363281 C 33.621094 8.359375 33.316406 8.355469 32.996094 8.347656 C 33.210938 8.761719 33.699219 9.09375 34.484375 9.363281 C 35.355469 9.660156 36.636719 9.808594 38.285156 9.808594 C 38.84375 9.808594 39.367188 9.789062 39.839844 9.75 C 40.308594 9.714844 40.738281 9.664062 41.121094 9.605469 C 41.511719 9.546875 41.828125 9.488281 42.09375 9.429688 C 42.371094 9.371094 42.578125 9.328125 42.707031 9.296875 L 42.945312 9.246094 L 44.585938 10.644531 L 44.375 10.703125 C 44.191406 10.757812 43.910156 10.828125 43.523438 10.917969 C 43.128906 11.011719 42.632812 11.101562 42.058594 11.179688 C 41.480469 11.261719 40.804688 11.335938 40.050781 11.394531 C 39.292969 11.457031 38.453125 11.488281 37.550781 11.488281 M 32.785156 6.9375 C 33.195312 6.945312 33.589844 6.949219 33.972656 6.949219 L 35.375 6.949219 C 36.578125 6.949219 37.558594 6.914062 38.296875 6.847656 C 39.019531 6.78125 39.59375 6.695312 39.984375 6.589844 C 40.359375 6.496094 40.601562 6.386719 40.710938 6.273438 C 40.832031 6.148438 40.890625 6.019531 40.890625 5.886719 C 40.890625 5.546875 40.597656 5.300781 39.996094 5.132812 C 39.363281 4.957031 38.5625 4.867188 37.617188 4.867188 C 36.832031 4.867188 36.140625 4.929688 35.554688 5.050781 C 34.96875 5.171875 34.46875 5.335938 34.074219 5.539062 C 33.671875 5.738281 33.359375 5.976562 33.136719 6.242188 C 32.945312 6.46875 32.828125 6.703125 32.785156 6.9375 "/>
<path style=" stroke:none;fill-rule:nonzero;fill:rgb(0%,30.980392%,53.72549%);fill-opacity:1;" d="M 56.453125 11.488281 C 55.113281 11.488281 53.855469 11.382812 52.730469 11.179688 C 51.597656 10.972656 50.605469 10.6875 49.785156 10.328125 C 48.957031 9.96875 48.304688 9.535156 47.835938 9.03125 C 47.367188 8.53125 47.128906 7.980469 47.128906 7.398438 C 47.128906 6.808594 47.355469 6.253906 47.804688 5.757812 C 48.246094 5.261719 48.871094 4.828125 49.664062 4.460938 C 50.457031 4.097656 51.394531 3.8125 52.460938 3.609375 C 53.523438 3.410156 54.699219 3.308594 55.953125 3.308594 C 57.28125 3.308594 58.46875 3.429688 59.484375 3.660156 C 60.242188 3.832031 60.886719 4.039062 61.402344 4.269531 L 61.402344 0.914062 C 61.402344 0.609375 61.609375 0.375 62.015625 0.222656 C 62.410156 0.0742188 62.96875 0 63.675781 0 C 64.097656 0 64.496094 0.0234375 64.855469 0.0742188 C 65.199219 0.117188 65.429688 0.152344 65.546875 0.171875 L 65.714844 0.203125 L 65.714844 7.039062 C 65.714844 7.777344 65.476562 8.433594 65.011719 8.984375 C 64.542969 9.535156 63.886719 10.003906 63.0625 10.375 C 62.238281 10.742188 61.25 11.023438 60.125 11.210938 C 59.007812 11.394531 57.773438 11.488281 56.453125 11.488281 M 56.523438 5.078125 C 55.785156 5.078125 55.113281 5.136719 54.527344 5.253906 C 53.9375 5.371094 53.421875 5.535156 52.988281 5.734375 C 52.558594 5.9375 52.226562 6.183594 51.996094 6.464844 C 51.761719 6.75 51.644531 7.0625 51.644531 7.398438 C 51.644531 7.734375 51.761719 8.042969 51.992188 8.320312 C 52.222656 8.601562 52.558594 8.84375 52.988281 9.046875 C 53.421875 9.246094 53.9375 9.410156 54.527344 9.527344 C 55.675781 9.757812 57.289062 9.761719 58.507812 9.535156 C 59.105469 9.421875 59.617188 9.265625 60.039062 9.066406 C 60.457031 8.871094 60.796875 8.625 61.035156 8.34375 C 61.277344 8.058594 61.402344 7.742188 61.402344 7.398438 C 61.402344 7.074219 61.277344 6.765625 61.035156 6.480469 C 60.796875 6.199219 60.457031 5.949219 60.035156 5.742188 C 59.613281 5.535156 59.101562 5.371094 58.503906 5.253906 C 57.90625 5.136719 57.238281 5.078125 56.523438 5.078125 "/>
<path style=" stroke:none;fill-rule:nonzero;fill:rgb(0%,30.980392%,53.72549%);fill-opacity:1;" d="M 72.757812 11.277344 L 68.414062 11.277344 L 68.414062 4.433594 C 68.414062 4.117188 68.628906 3.878906 69.050781 3.730469 C 69.453125 3.589844 70.015625 3.519531 70.722656 3.519531 C 71.144531 3.519531 71.542969 3.542969 71.902344 3.59375 C 72.242188 3.636719 72.472656 3.671875 72.589844 3.691406 L 72.757812 3.722656 Z M 72.757812 11.277344 "/>
<path style=" stroke:none;fill-rule:nonzero;fill:rgb(0%,30.980392%,53.72549%);fill-opacity:1;" d="M 84.25 11.488281 C 82.496094 11.488281 81.039062 11.417969 79.917969 11.28125 C 78.789062 11.140625 77.875 10.953125 77.21875 10.71875 C 76.546875 10.480469 76.078125 10.203125 75.824219 9.886719 C 75.585938 9.578125 75.457031 9.261719 75.457031 8.941406 C 75.457031 8.515625 75.605469 8.140625 75.898438 7.816406 C 76.195312 7.488281 76.683594 7.207031 77.355469 6.988281 C 78.015625 6.769531 78.886719 6.601562 79.945312 6.496094 C 80.984375 6.390625 82.265625 6.335938 83.75 6.335938 C 84.589844 6.335938 85.40625 6.347656 86.175781 6.371094 C 86.753906 6.390625 87.226562 6.410156 87.585938 6.425781 C 87.558594 6.15625 87.4375 5.925781 87.234375 5.742188 C 87.003906 5.535156 86.679688 5.367188 86.277344 5.25 C 85.863281 5.132812 85.355469 5.046875 84.773438 5 C 84.164062 4.953125 83.480469 4.925781 82.746094 4.925781 C 81.519531 4.925781 80.519531 4.992188 79.78125 5.113281 C 79.042969 5.238281 78.558594 5.34375 78.335938 5.425781 L 78.167969 5.488281 L 77.996094 5.421875 C 77.84375 5.367188 77.648438 5.265625 77.402344 5.117188 C 77.136719 4.957031 77 4.761719 77 4.539062 C 77 4.378906 77.09375 4.21875 77.28125 4.066406 C 77.472656 3.914062 77.808594 3.777344 78.273438 3.660156 C 78.71875 3.550781 79.316406 3.464844 80.058594 3.402344 C 80.789062 3.339844 81.714844 3.308594 82.816406 3.308594 C 84.144531 3.308594 85.371094 3.367188 86.46875 3.484375 C 87.574219 3.601562 88.546875 3.792969 89.355469 4.050781 C 90.167969 4.3125 90.808594 4.660156 91.261719 5.085938 C 91.710938 5.511719 91.9375 6.027344 91.9375 6.621094 L 91.9375 11.226562 L 91.722656 11.246094 C 91.496094 11.265625 91.140625 11.289062 90.648438 11.3125 C 90.167969 11.335938 89.601562 11.363281 88.953125 11.390625 C 88.304688 11.414062 87.574219 11.4375 86.773438 11.457031 C 85.972656 11.476562 85.121094 11.488281 84.25 11.488281 M 83.882812 7.773438 C 82.425781 7.773438 81.363281 7.867188 80.71875 8.058594 C 80.105469 8.242188 79.804688 8.523438 79.804688 8.925781 C 79.804688 9.085938 79.871094 9.238281 80 9.371094 C 80.121094 9.5 80.34375 9.609375 80.652344 9.703125 C 80.984375 9.796875 81.441406 9.871094 82.011719 9.925781 C 82.601562 9.976562 83.359375 10.003906 84.25 10.003906 C 85.257812 10.003906 86.066406 9.988281 86.65625 9.953125 C 87.089844 9.925781 87.410156 9.90625 87.625 9.890625 L 87.625 7.902344 C 87.390625 7.882812 87.046875 7.859375 86.601562 7.832031 C 86.003906 7.792969 85.089844 7.773438 83.882812 7.773438 "/>
<path style=" stroke:none;fill-rule:nonzero;fill:rgb(0%,30.980392%,53.72549%);fill-opacity:1;" d="M 116.097656 11.277344 L 111.75 11.277344 L 111.75 4.433594 C 111.75 4.117188 111.96875 3.878906 112.386719 3.730469 C 112.792969 3.589844 113.351562 3.519531 114.058594 3.519531 C 114.484375 3.519531 114.878906 3.542969 115.238281 3.59375 C 115.582031 3.636719 115.8125 3.671875 115.925781 3.691406 L 116.097656 3.722656 Z M 116.097656 11.277344 "/>
<path style=" stroke:none;fill-rule:nonzero;fill:rgb(0%,30.980392%,53.72549%);fill-opacity:1;" d="M 135.640625 11.277344 L 131.296875 11.277344 L 131.296875 7.054688 C 131.296875 6.410156 130.953125 5.914062 130.269531 5.585938 C 129.589844 5.257812 128.5625 5.09375 127.21875 5.09375 C 125.855469 5.09375 124.828125 5.257812 124.160156 5.585938 C 123.484375 5.914062 123.140625 6.410156 123.140625 7.054688 L 123.140625 11.277344 L 118.796875 11.277344 L 118.796875 6.621094 C 118.796875 6.105469 119.015625 5.636719 119.441406 5.226562 C 119.867188 4.820312 120.464844 4.46875 121.214844 4.183594 C 121.960938 3.902344 122.855469 3.683594 123.878906 3.53125 C 124.898438 3.386719 126.019531 3.308594 127.21875 3.308594 C 128.421875 3.308594 129.550781 3.386719 130.578125 3.53125 C 131.609375 3.683594 132.511719 3.902344 133.257812 4.183594 C 134.011719 4.46875 134.601562 4.820312 135.019531 5.230469 C 135.433594 5.636719 135.640625 6.105469 135.640625 6.621094 Z M 135.640625 11.277344 "/>
<path style=" stroke:none;fill-rule:nonzero;fill:rgb(0%,30.980392%,53.72549%);fill-opacity:1;" d="M 147.464844 11.488281 C 146.121094 11.488281 144.867188 11.382812 143.738281 11.179688 C 142.605469 10.972656 141.617188 10.6875 140.796875 10.328125 C 139.96875 9.96875 139.3125 9.535156 138.84375 9.03125 C 138.378906 8.53125 138.140625 7.980469 138.140625 7.398438 C 138.140625 6.808594 138.367188 6.253906 138.808594 5.757812 C 139.253906 5.261719 139.882812 4.828125 140.671875 4.460938 C 141.460938 4.097656 142.40625 3.8125 143.46875 3.609375 C 144.53125 3.410156 145.707031 3.308594 146.964844 3.308594 C 148.292969 3.308594 149.480469 3.429688 150.496094 3.660156 C 151.25 3.832031 151.894531 4.039062 152.414062 4.269531 L 152.414062 0.914062 C 152.414062 0.609375 152.617188 0.375 153.023438 0.222656 C 153.417969 0.0742188 153.980469 0 154.683594 0 C 155.109375 0 155.503906 0.0234375 155.863281 0.0742188 C 156.210938 0.117188 156.441406 0.152344 156.554688 0.171875 L 156.726562 0.203125 L 156.726562 7.039062 C 156.726562 7.777344 156.488281 8.433594 156.023438 8.984375 C 155.550781 9.535156 154.898438 10.003906 154.074219 10.375 C 153.25 10.742188 152.257812 11.023438 151.136719 11.210938 C 150.015625 11.394531 148.78125 11.488281 147.464844 11.488281 M 147.53125 5.078125 C 146.796875 5.078125 146.121094 5.136719 145.535156 5.253906 C 144.945312 5.371094 144.429688 5.535156 144 5.734375 C 143.570312 5.9375 143.234375 6.183594 143.003906 6.464844 C 142.769531 6.75 142.652344 7.0625 142.652344 7.398438 C 142.652344 7.734375 142.769531 8.042969 143 8.320312 C 143.230469 8.601562 143.566406 8.84375 144 9.046875 C 144.429688 9.246094 144.945312 9.410156 145.535156 9.527344 C 146.6875 9.757812 148.300781 9.761719 149.515625 9.535156 C 150.113281 9.421875 150.628906 9.265625 151.050781 9.066406 C 151.46875 8.871094 151.804688 8.625 152.042969 8.34375 C 152.289062 8.058594 152.414062 7.742188 152.414062 7.398438 C 152.414062 7.074219 152.289062 6.765625 152.046875 6.480469 C 151.804688 6.199219 151.464844 5.949219 151.046875 5.742188 C 150.625 5.535156 150.109375 5.371094 149.511719 5.253906 C 148.914062 5.136719 148.25 5.078125 147.53125 5.078125 "/>
<path style=" stroke:none;fill-rule:nonzero;fill:rgb(0%,30.980392%,53.72549%);fill-opacity:1;" d="M 106.742188 11.371094 C 106.148438 11.371094 105.558594 11.269531 105.105469 11.066406 L 95.316406 6.679688 C 94.414062 6.277344 94.414062 5.621094 95.316406 5.214844 L 105.105469 0.828125 C 106.007812 0.425781 107.472656 0.425781 108.375 0.828125 C 109.277344 1.234375 109.277344 1.890625 108.375 2.296875 L 100.222656 5.949219 L 108.375 9.601562 C 109.277344 10.007812 109.277344 10.660156 108.375 11.066406 C 107.925781 11.269531 107.332031 11.371094 106.742188 11.371094 "/>
<path style=" stroke:none;fill-rule:nonzero;fill:rgb(89.411765%,0.392157%,21.960784%);fill-opacity:1;" d="M 96.535156 0.523438 C 97.183594 0.523438 97.726562 0.621094 98.171875 0.824219 C 98.617188 1.023438 98.839844 1.265625 98.839844 1.554688 C 98.839844 1.847656 98.617188 2.089844 98.171875 2.289062 C 97.726562 2.492188 97.183594 2.589844 96.535156 2.589844 C 95.886719 2.589844 95.34375 2.492188 94.898438 2.289062 C 94.449219 2.089844 94.226562 1.847656 94.226562 1.554688 C 94.226562 1.265625 94.449219 1.023438 94.898438 0.824219 C 95.34375 0.621094 95.886719 0.523438 96.535156 0.523438 "/>
<path style=" stroke:none;fill-rule:nonzero;fill:rgb(0%,30.980392%,53.72549%);fill-opacity:1;" d="M 24.195312 0.609375 C 23.332031 0.445312 22.339844 0.535156 21.675781 0.832031 L 11.082031 5.578125 L 6.949219 3.730469 C 6.945312 3.726562 6.941406 3.726562 6.941406 3.726562 L 3.945312 2.382812 C 3.042969 1.980469 1.578125 1.980469 0.675781 2.382812 C 0.21875 2.585938 -0.00390625 2.855469 0 3.125 L 0 10.449219 C 0 11.023438 1.035156 11.488281 2.3125 11.488281 C 3.589844 11.488281 4.621094 11.023438 4.621094 10.449219 L 4.621094 5.617188 L 6.441406 6.429688 C 6.445312 6.433594 6.445312 6.433594 6.449219 6.433594 L 9.449219 7.777344 C 10.351562 8.179688 11.8125 8.179688 12.714844 7.777344 L 21 4.066406 L 21 10.449219 C 21 11.023438 22.035156 11.488281 23.3125 11.488281 C 24.589844 11.488281 25.625 11.023438 25.625 10.449219 L 25.625 1.566406 C 25.625 1.144531 25.058594 0.769531 24.195312 0.609375 "/>
</g>
</svg>
